<svg width="40" height="40" viewBox="0 0 40 40" fill="none" xmlns="http://www.w3.org/2000/svg">
<g clip-path="url(#clip0_129_6719)">
<path d="M20 1.5C24.9065 1.5 29.6116 3.44952 33.0811 6.91895C36.5505 10.3884 38.5 15.0935 38.5 20C38.5 24.9065 36.5505 29.6116 33.0811 33.0811C29.6116 36.5505 24.9065 38.5 20 38.5C15.0935 38.5 10.3884 36.5505 6.91895 33.0811C3.44952 29.6116 1.5 24.9065 1.5 20C1.5 15.0935 3.44952 10.3884 6.91895 6.91895C10.3884 3.44952 15.0935 1.5 20 1.5Z" stroke="white" stroke-width="3"/>
<path fill-rule="evenodd" clip-rule="evenodd" d="M20.2148 16.88L15.6832 12.3485C15.5951 12.2608 15.4904 12.1915 15.3753 12.1447C15.2602 12.0978 15.1369 12.0743 15.0126 12.0755C14.8883 12.0767 14.7655 12.1026 14.6513 12.1517C14.5371 12.2008 14.4338 12.2721 14.3474 12.3614L12.3614 14.3474C12.1841 14.5237 12.0833 14.7627 12.0808 15.0127C12.0784 15.2627 12.1746 15.5036 12.3485 15.6833L16.8768 20.2148L12.3485 24.7463C12.2608 24.8345 12.1915 24.9391 12.1447 25.0542C12.0978 25.1694 12.0743 25.2927 12.0755 25.417C12.0767 25.5413 12.1026 25.6641 12.1517 25.7783C12.2007 25.8925 12.272 25.9958 12.3614 26.0822L14.3474 28.0682C14.7129 28.4369 15.3177 28.4466 15.6832 28.0811L20.2148 23.5528L24.7463 28.0811C24.8344 28.1688 24.9391 28.238 25.0542 28.2849C25.1693 28.3318 25.2926 28.3553 25.4169 28.3541C25.5412 28.3529 25.664 28.327 25.7782 28.2779C25.8924 28.2288 25.9957 28.1575 26.0822 28.0682L28.0681 26.0822C28.2455 25.9059 28.3463 25.6669 28.3487 25.4169C28.3511 25.1669 28.255 24.926 28.0811 24.7463L23.5528 20.2148L28.0811 15.6833C28.1687 15.5951 28.238 15.4905 28.2849 15.3753C28.3317 15.2602 28.3552 15.1369 28.354 15.0126C28.3528 14.8883 28.3269 14.7655 28.2779 14.6513C28.2288 14.5371 28.1575 14.4338 28.0681 14.3474L26.0822 12.3614C25.9059 12.1841 25.6669 12.0833 25.4169 12.0809C25.1669 12.0785 24.926 12.1746 24.7463 12.3485L20.2148 16.88Z" fill="white"/>
</g>
<defs>
<clipPath id="clip0_129_6719">
<rect width="40" height="40" fill="white"/>
</clipPath>
</defs>
</svg>
